<?xml version="1.0" encoding="UTF-8"?>
<!DOCTYPE svg PUBLIC "-//W3C//DTD SVG 1.1//EN" "http://www.w3.org/Graphics/SVG/1.1/DTD/svg11.dtd">
<!-- Creator: CorelDRAW -->
<svg xmlns="http://www.w3.org/2000/svg" xml:space="preserve" width="0.4in" height="0.12in" version="1.1" style="shape-rendering:geometricPrecision; text-rendering:geometricPrecision; image-rendering:optimizeQuality; fill-rule:evenodd; clip-rule:evenodd"
viewBox="0 0 20.49 6.15"
 xmlns:xlink="http://www.w3.org/1999/xlink"
 xmlns:xodm="http://www.corel.com/coreldraw/odm/2003">
 <defs>
  <style type="text/css">
   <![CDATA[
    .fil9 {fill:none}
    .fil8 {fill:#373435;fill-rule:nonzero}
    .fil1 {fill:#F16542;fill-rule:nonzero}
    .fil0 {fill:#186996;fill-rule:nonzero}
    .fil7 {fill:#286191;fill-rule:nonzero}
    .fil2 {fill:url(#id0)}
    .fil6 {fill:url(#id1)}
    .fil3 {fill:url(#id2)}
    .fil4 {fill:url(#id3)}
    .fil5 {fill:url(#id4)}
   ]]>
  </style>
  <linearGradient id="id0" gradientUnits="userSpaceOnUse" x1="7.55" y1="3.38" x2="7.49" y2="1.86">
   <stop offset="0" style="stop-opacity:1; stop-color:#186996"/>
   <stop offset="1" style="stop-opacity:1; stop-color:#283A48"/>
  </linearGradient>
  <linearGradient id="id1" gradientUnits="userSpaceOnUse" xlink:href="#id0" x1="7.71" y1="3.38" x2="7.65" y2="1.86">
  </linearGradient>
  <linearGradient id="id2" gradientUnits="userSpaceOnUse" xlink:href="#id0" x1="8.18" y1="3.36" x2="8.12" y2="1.84">
  </linearGradient>
  <linearGradient id="id3" gradientUnits="userSpaceOnUse" xlink:href="#id0" x1="7.97" y1="3.37" x2="7.92" y2="1.85">
  </linearGradient>
  <linearGradient id="id4" gradientUnits="userSpaceOnUse" xlink:href="#id0" x1="7.89" y1="3.36" x2="7.83" y2="1.85">
  </linearGradient>
 </defs>
 <g id="Layer_x0020_1">
  <metadata id="CorelCorpID_0Corel-Layer"/>
  <g id="_1999490232976">
   <g>
    <g>
     <path class="fil0" d="M5.64 3.44c-0.28,-0.03 -0.51,-0.16 -0.69,-0.38 -0.17,-0.22 -0.25,-0.47 -0.22,-0.75 0.03,-0.28 0.16,-0.51 0.37,-0.69 0.22,-0.18 0.47,-0.25 0.75,-0.22 0.28,0.03 0.51,0.16 0.69,0.38l-0.19 0.15c-0.14,-0.17 -0.31,-0.26 -0.53,-0.29 -0.21,-0.02 -0.41,0.03 -0.58,0.17 -0.17,0.14 -0.26,0.31 -0.29,0.53 -0.02,0.21 0.04,0.41 0.17,0.58 0.14,0.17 0.31,0.26 0.53,0.29 0.3,0.02 0.54,-0.09 0.73,-0.33l0.2 0.14c-0.23,0.29 -0.51,0.44 -0.84,0.44 -0.04,0 -0.07,-0 -0.11,-0.01z"/>
     <path class="fil0" d="M8.36 2.32c0,-0.2 -0.07,-0.36 -0.21,-0.5 -0.14,-0.14 -0.31,-0.21 -0.5,-0.21 -0.2,0 -0.36,0.07 -0.5,0.21 -0.14,0.14 -0.21,0.31 -0.21,0.5l1.42 0zm-1.64 0c0,-0.25 0.09,-0.47 0.27,-0.65 0.18,-0.18 0.4,-0.27 0.65,-0.27 0.26,0 0.47,0.09 0.66,0.27 0.18,0.18 0.27,0.4 0.27,0.65l-1.86 0z"/>
     <path class="fil1" d="M10.6 3.45l0 -0.18 0 -0.36 0 -0.38 0 -0.16c-0.01,-0.21 -0.08,-0.38 -0.22,-0.52 -0.14,-0.14 -0.31,-0.21 -0.51,-0.21 -0.2,0 -0.38,0.07 -0.52,0.21 -0.14,0.14 -0.21,0.32 -0.22,0.52l0 0.14 0 0.32 0 0.35 0 0.23 0 0.03 -0.24 0 0 -0.03 0 -0.25 0 -0.35 0 -0.45c0.01,-0.27 0.1,-0.51 0.29,-0.69 0.19,-0.19 0.42,-0.28 0.68,-0.28 0.27,0 0.49,0.09 0.68,0.28 0.19,0.19 0.28,0.42 0.29,0.69l0 0.18 0 0.36 0 0.54 -0.24 0z"/>
     <path class="fil1" d="M11.7 1.83c-0.15,0.13 -0.23,0.3 -0.26,0.51 -0.02,0.21 0.03,0.41 0.17,0.58 0,0 0,0.01 0.01,0.01l1.14 -1.08c-0.13,-0.12 -0.28,-0.18 -0.45,-0.2 -0.03,-0 -0.05,-0.01 -0.08,-0.01 -0.2,0 -0.37,0.07 -0.52,0.2zm0.41 1.61c-0.28,-0.03 -0.51,-0.16 -0.69,-0.38 -0.18,-0.22 -0.25,-0.47 -0.22,-0.75 0.04,-0.29 0.16,-0.52 0.38,-0.69 0.21,-0.17 0.46,-0.25 0.75,-0.22 0.28,0.03 0.51,0.16 0.69,0.38l0.07 0.09 -1.29 1.22c0.1,0.07 0.22,0.11 0.34,0.12 0.3,0.02 0.55,-0.09 0.73,-0.33l0.2 0.14c-0.23,0.29 -0.51,0.44 -0.84,0.44 -0.04,0 -0.07,-0 -0.11,-0.01z"/>
     <path class="fil1" d="M14.57 2.91c0,0.07 -0.01,0.13 -0.03,0.2 -0.03,0.07 -0.06,0.12 -0.11,0.17 -0.05,0.05 -0.1,0.08 -0.16,0.11 -0.11,0.05 -0.23,0.07 -0.34,0.07 -0.12,0 -0.23,-0.02 -0.34,-0.06 -0.09,-0.03 -0.17,-0.09 -0.25,-0.16l0.16 -0.18c0.04,0.05 0.1,0.09 0.18,0.12 0.17,0.06 0.34,0.06 0.5,0 0.07,-0.03 0.12,-0.08 0.15,-0.14 0.01,-0.03 0.02,-0.06 0.01,-0.1 -0,-0.03 -0.01,-0.06 -0.03,-0.09 -0.04,-0.06 -0.1,-0.11 -0.18,-0.16 -0.07,-0.04 -0.15,-0.09 -0.24,-0.13 -0.01,-0 -0.01,-0.01 -0.02,-0.01 -0,-0 -0.01,-0 -0.01,-0.01 -0.09,-0.04 -0.18,-0.09 -0.26,-0.15 -0.05,-0.03 -0.09,-0.07 -0.14,-0.11 -0.04,-0.04 -0.08,-0.09 -0.11,-0.16 -0.02,-0.03 -0.03,-0.07 -0.03,-0.1 -0,-0.02 -0.01,-0.04 -0.01,-0.05l0 -0.01 0 -0.03c0,-0.07 0.02,-0.13 0.04,-0.19 0.06,-0.13 0.16,-0.21 0.27,-0.26 0.11,-0.05 0.22,-0.07 0.34,-0.07 0.12,-0 0.23,0.02 0.34,0.06 0.08,0.03 0.16,0.08 0.23,0.15l-0.19 0.15c-0.04,-0.03 -0.08,-0.06 -0.13,-0.08 -0.17,-0.06 -0.33,-0.06 -0.49,0 -0.07,0.03 -0.13,0.08 -0.16,0.15 -0.01,0.03 -0.02,0.06 -0.02,0.1l0 0.02 0 0.01c0,0.01 0,0.02 0,0.02 0,0.01 0.01,0.03 0.01,0.04 0.03,0.06 0.08,0.11 0.16,0.16 0.08,0.05 0.16,0.1 0.25,0.14 0.01,0.01 0.02,0.01 0.03,0.02 0.08,0.04 0.16,0.08 0.25,0.13 0.1,0.05 0.18,0.13 0.26,0.24 0.04,0.06 0.06,0.13 0.06,0.2z"/>
     <path class="fil1" d="M15.03 2.47c0.01,0.21 0.08,0.38 0.22,0.52 0.14,0.14 0.31,0.21 0.52,0.21l0 0.24c-0.27,0 -0.5,-0.09 -0.68,-0.28 -0.19,-0.19 -0.28,-0.42 -0.29,-0.69l0 -0.04 0 -0.32 0 -0.44 0 -0.28 0 -0.01 0 -0.46 0.24 0c-0,0.17 -0,0.32 -0,0.45l0.64 0 0 0.21 -0.64 0c0,0.17 -0,0.33 -0,0.48 -0,0.15 -0,0.27 -0,0.35l0 0 0 0 0 0 0 0 0 0 0 0.03z"/>
     <path class="fil2" d="M7.53 1.81c-0.11,0.11 -0.23,0.23 -0.34,0.34 -0.01,0.01 -0.02,0.03 -0.02,0.05 -0,0.06 -0,0.13 -0,0.19 0,0.01 0,0.03 0.01,0.04 0.01,0.05 0.03,0.1 0.05,0.15 0.01,0.04 0.01,0.05 -0.03,0.08 -0,-0.01 -0,-0.01 -0.01,-0.02 -0.02,-0.08 -0.05,-0.16 -0.07,-0.24 -0,-0.01 -0.02,-0.03 -0.03,-0.03 -0.01,-0 -0.03,0 -0.03,0.01 -0.01,0.01 -0.01,0.03 -0,0.05 0.02,0.09 0.05,0.17 0.08,0.25 0.01,0.04 0.01,0.05 -0.03,0.08 -0.04,-0.12 -0.07,-0.24 -0.11,-0.36 -0.01,-0.03 -0.02,-0.04 -0.05,-0.04 -0.03,0 -0.07,0 -0.11,0 -0.02,-0 -0.03,-0 -0.05,-0 -0.05,0 -0.06,0.01 -0.05,0.06 0.01,0.08 0.02,0.15 0.03,0.23 0.03,0.11 0.08,0.21 0.15,0.3 -0.02,0.02 -0.04,0.04 -0.06,0.06 -0.02,0.02 -0.02,0.04 -0,0.05 0.02,0.02 0.04,0.02 0.05,0 0.01,-0.01 0.01,-0.01 0.02,-0.02 0.09,-0.09 0.19,-0.19 0.28,-0.28 0.07,-0.07 0.15,-0.15 0.22,-0.22 0.01,0.01 0.03,0.02 0.04,0.03 -0.01,0.01 -0.01,0.01 -0.02,0.02 -0.16,0.17 -0.33,0.33 -0.49,0.5 -0.02,0.02 -0.03,0.03 -0.02,0.06 0.01,0.02 0.03,0.02 0.06,0.01 0.29,-0.08 0.58,-0.16 0.87,-0.24 0.04,-0.01 0.07,-0 0.1,0.03 -0.14,0.04 -0.28,0.08 -0.42,0.11 -0.15,0.04 -0.3,0.08 -0.44,0.12 -0,0 -0,0 -0.01,0 -0.03,0.01 -0.05,0.03 -0.04,0.05 0.01,0.03 0.03,0.03 0.06,0.02 0.3,-0.08 0.59,-0.16 0.89,-0.24 0.04,-0.01 0.07,0 0.1,0.03 -0.01,0 -0.02,0.01 -0.02,0.01 -0.16,0.04 -0.32,0.08 -0.47,0.13 -0.11,0.03 -0.23,0.06 -0.34,0.09 -0.03,0.01 -0.04,0.03 -0.03,0.05 0.01,0.03 0.03,0.03 0.05,0.02 0.02,-0 0.03,-0.01 0.05,-0.01 0.02,0.05 0.03,0.06 0.06,0.05 0.04,-0.01 0.02,-0.04 0.02,-0.07 0.02,-0 0.03,-0.01 0.05,-0.01 0.01,0.03 0.02,0.06 0.03,0.09 0.01,0.02 0.02,0.04 0.05,0.03 0.03,-0.01 0.03,-0.03 0.02,-0.05 -0.01,-0.03 -0.02,-0.06 -0.03,-0.09 0.1,-0.03 0.21,-0.06 0.31,-0.08 -0.02,0.06 -0.03,0.11 -0.05,0.16 -0.01,0.03 -0.01,0.05 0.02,0.06 0.02,0.01 0.04,-0 0.05,-0.04 0.02,-0.06 0.03,-0.11 0.05,-0.16 0.01,-0.04 0.02,-0.05 0.07,-0.05 0,0 0,0 0,0.01 -0.01,0.05 -0.03,0.09 -0.04,0.14 -0.01,0.03 -0,0.05 0.02,0.06 0.02,0.01 0.04,-0.01 0.05,-0.04 0.02,-0.05 0.03,-0.1 0.05,-0.16 0.01,-0.04 0.02,-0.05 0.07,-0.05 -0,0.01 -0.01,0.02 -0.01,0.03 -0.01,0.03 -0.02,0.07 -0.03,0.1 -0.01,0.02 -0,0.04 0.02,0.05 0.02,0.01 0.04,-0.01 0.05,-0.03 0,-0.01 0.01,-0.02 0.01,-0.03 0.01,-0.04 0.03,-0.08 0.04,-0.13 0.02,0.02 0.04,0.03 0.05,0.04 0.04,0.03 0.06,0.03 0.07,0.01 0.02,-0.02 0.01,-0.04 -0.03,-0.07 -0.3,-0.23 -0.6,-0.45 -0.89,-0.68 -0.05,-0.04 -0.09,-0.09 -0.16,-0.08 0,-0.05 -0,-0.1 0,-0.15 0,-0.01 0.01,-0.03 0.02,-0.04 0.11,-0.11 0.21,-0.21 0.32,-0.32 0.02,-0.02 0.03,-0.05 0.01,-0.06 -0.01,-0.01 -0.02,-0.01 -0.02,-0.01 -0.01,0 -0.02,0.01 -0.04,0.02zm-0.27 0.64c0,-0 0.01,-0 0.01,-0.01 0.03,0.02 0.06,0.04 0.08,0.06 -0.02,0.02 -0.04,0.04 -0.06,0.06 -0.01,-0.04 -0.02,-0.08 -0.03,-0.11zm-0.46 -0c0.04,0 0.07,-0 0.1,0 0.01,0 0.01,0.01 0.02,0.01 0.04,0.12 0.07,0.24 0.11,0.36 0,0.01 -0,0.02 -0.01,0.02 -0.02,0.02 -0.04,0.04 -0.06,0.06 -0.1,-0.14 -0.15,-0.29 -0.16,-0.46zm0.29 0.61c0.15,-0.14 0.29,-0.28 0.44,-0.42 0.01,0.01 0.02,0.02 0.04,0.03 -0.06,0.06 -0.11,0.11 -0.17,0.17 -0.06,0.06 -0.13,0.12 -0.19,0.19 -0.03,0.03 -0.08,0.03 -0.11,0.05 -0,-0 -0,-0 -0,-0.01zm0.54 -0.35c0.06,0.05 0.13,0.1 0.2,0.15 -0.17,0.05 -0.33,0.09 -0.5,0.14 0.1,-0.1 0.2,-0.19 0.3,-0.29z"/>
     <path class="fil3" d="M8.09 2.16c-0.01,0.01 -0.02,0.03 -0.02,0.04 -0,0.06 -0,0.11 -0,0.18 -0.01,0 -0.03,0 -0.04,0 -0.1,0 -0.21,-0 -0.31,0 -0.03,0 -0.05,0.02 -0.04,0.04 0,0.01 0.01,0.02 0.03,0.03 0.16,0.12 0.32,0.24 0.48,0.36 0.08,0.06 0.17,0.13 0.25,0.19 0.02,0.02 0.05,0.02 0.06,-0 0.02,-0.03 0,-0.04 -0.02,-0.06 -0.01,-0.01 -0.02,-0.02 -0.04,-0.03 0.04,-0.01 0.07,-0.02 0.1,-0.03 0.03,-0.01 0.04,-0.03 0.04,-0.05 -0.01,-0.02 -0.03,-0.03 -0.06,-0.02 -0.04,0.01 -0.08,0.02 -0.11,0.03 -0.04,0.02 -0.07,-0.01 -0.1,-0.03 0.03,-0.01 0.06,-0.02 0.09,-0.03 0.05,-0.01 0.11,-0.03 0.16,-0.04 0.02,-0.01 0.04,-0.02 0.03,-0.04 -0,-0.02 -0.02,-0.03 -0.05,-0.03 -0.01,0 -0.02,0 -0.03,0 0,-0.01 0,-0.01 0,-0.02 0.01,-0.08 0.02,-0.16 0.03,-0.23 0,-0.04 -0.01,-0.05 -0.05,-0.05 -0.02,0 -0.03,0 -0.05,0 -0.03,0 -0.06,0 -0.08,-0 -0.03,-0 -0.04,0.01 -0.05,0.03 -0,0.01 -0.01,0.02 -0.01,0.03 -0.03,0.11 -0.06,0.21 -0.1,0.32 -0.02,-0.01 -0.03,-0.02 -0.05,-0.04 0.03,-0.1 0.06,-0.19 0.09,-0.29 0.01,-0.02 0.01,-0.05 -0.02,-0.06 -0.02,-0.01 -0.04,0 -0.05,0.04 -0.02,0.07 -0.04,0.13 -0.06,0.2 -0.01,0.02 -0.01,0.04 -0.02,0.06 -0.05,-0.03 -0.05,-0.03 -0.03,-0.08 0,-0.01 0.01,-0.02 0.01,-0.03 0.05,-0.12 0.05,-0.25 0.04,-0.37 -0,-0.02 -0.02,-0.04 -0.04,-0.04 -0.01,0 -0.01,0 -0.02,0.01zm0.28 0.41c0.01,-0.03 0.02,-0.06 0.03,-0.1 0,-0.02 0.01,-0.03 0.03,-0.03 0.02,0 0.04,0 0.06,0 -0,0.09 -0.02,0.17 -0.05,0.25 -0,0.01 -0.01,0.01 -0.02,0.01 -0.03,0.01 -0.07,0.02 -0.11,0.03 0.02,-0.06 0.03,-0.12 0.05,-0.17zm-0.54 -0.11c0,-0 0,-0 0,-0.01l0.22 0c-0.01,0.05 -0.03,0.09 -0.04,0.14 -0.06,-0.05 -0.12,-0.09 -0.18,-0.14z"/>
     <path class="fil4" d="M7.48 2.4c-0,0.01 0,0.03 0.01,0.04 0.01,0.01 0.03,0.02 0.04,0.03 0.27,0.21 0.55,0.42 0.82,0.63 0.03,0.02 0.05,0.02 0.07,0 0.01,-0.02 0.01,-0.04 -0.02,-0.06 -0.29,-0.22 -0.57,-0.44 -0.86,-0.66 -0.01,-0.01 -0.02,-0.01 -0.03,-0.02 -0.01,0.01 -0.03,0.02 -0.03,0.03z"/>
     <path class="fil5" d="M7.66 1.7l-0 0c-0.01,0 -0.02,0 -0.03,0.01 -0.02,0.02 -0.01,0.04 0,0.06 0.11,0.12 0.23,0.23 0.35,0.35 0.02,0.02 0.03,0.02 0.05,0 0.02,-0.02 0.02,-0.03 0,-0.05 -0.01,-0.01 -0.02,-0.02 -0.03,-0.03 -0.03,-0.02 -0.03,-0.04 -0.03,-0.08 0,-0.04 0,-0.08 0,-0.13 0,-0.03 -0.01,-0.05 -0.04,-0.05 -0.02,-0 -0.04,0.02 -0.04,0.05 -0,0.03 -0,0.06 -0,0.09 -0,0 -0.01,0 -0.01,0 -0.01,-0.01 -0.02,-0.02 -0.03,-0.03 -0.06,-0.06 -0.11,-0.11 -0.17,-0.17 -0.01,-0.01 -0.02,-0.02 -0.03,-0.02z"/>
     <path class="fil6" d="M7.66 2.02l-0 0 0 0 0 0 0 0 -0 0 0 0 0 0 -0 0 0 0 0 0 -0 0 0 0 0 0 0 0 -0 0 0 0c-0.08,0 -0.15,0.06 -0.15,0.15 -0,0.08 0.06,0.15 0.15,0.15 0.08,0 0.15,-0.07 0.15,-0.15 0,-0.08 -0.07,-0.15 -0.15,-0.15zm-0.08 0.15c-0,-0.04 0.03,-0.08 0.08,-0.08 0.04,-0 0.07,0.03 0.07,0.07 0,0.04 -0.03,0.08 -0.07,0.08 -0,0 -0,0 -0,0 -0.04,0 -0.07,-0.03 -0.08,-0.07z"/>
     <polygon class="fil7" points="14.79,1.61 15.67,1.61 15.67,1.39 14.79,1.39 "/>
    </g>
    <path class="fil8" d="M5.33 4.4l-0.01 0.07 -0.17 0 0 0.55 -0.09 0 0 -0.55 -0.18 0 0 -0.07 0.44 0zm0.32 0.13c0.04,0 0.08,0.01 0.1,0.04 0.02,0.03 0.04,0.06 0.04,0.11l0 0.34 -0.08 0 0 -0.33c0,-0.03 -0.01,-0.06 -0.02,-0.07 -0.01,-0.01 -0.03,-0.02 -0.06,-0.02 -0.02,0 -0.05,0.01 -0.07,0.02 -0.02,0.01 -0.04,0.03 -0.05,0.06l0 0.34 -0.08 0 0 -0.66 0.08 -0.01 0 0.26c0.04,-0.05 0.08,-0.08 0.14,-0.08zm0.66 0.23c0,0.01 -0,0.03 -0,0.04l-0.3 0c0,0.05 0.02,0.09 0.04,0.11 0.02,0.02 0.05,0.04 0.09,0.04 0.02,0 0.04,-0 0.06,-0.01 0.02,-0.01 0.04,-0.02 0.06,-0.03l0.04 0.05c-0.05,0.04 -0.11,0.06 -0.16,0.06 -0.07,0 -0.12,-0.02 -0.15,-0.06 -0.04,-0.04 -0.06,-0.1 -0.06,-0.18 0,-0.05 0.01,-0.09 0.02,-0.13 0.02,-0.04 0.04,-0.07 0.07,-0.09 0.03,-0.02 0.06,-0.03 0.1,-0.03 0.06,0 0.11,0.02 0.14,0.06 0.03,0.04 0.05,0.1 0.05,0.17zm-0.08 -0.02c0,-0.05 -0.01,-0.08 -0.03,-0.11 -0.02,-0.02 -0.05,-0.04 -0.08,-0.04 -0.07,0 -0.1,0.05 -0.11,0.15l0.22 0 0 -0.01zm0.61 -0.35c0.04,0 0.08,0.01 0.11,0.02 0.03,0.01 0.06,0.03 0.09,0.05l-0.05 0.05c-0.02,-0.02 -0.05,-0.03 -0.07,-0.04 -0.02,-0.01 -0.05,-0.01 -0.07,-0.01 -0.03,0 -0.06,0.01 -0.08,0.02 -0.02,0.02 -0.03,0.04 -0.03,0.07 0,0.02 0,0.03 0.01,0.05 0.01,0.01 0.02,0.02 0.04,0.03 0.02,0.01 0.05,0.02 0.08,0.03 0.04,0.01 0.07,0.02 0.1,0.04 0.03,0.01 0.05,0.03 0.06,0.06 0.02,0.02 0.02,0.05 0.02,0.09 0,0.04 -0.01,0.07 -0.03,0.09 -0.02,0.03 -0.04,0.05 -0.08,0.06 -0.03,0.02 -0.07,0.02 -0.12,0.02 -0.09,0 -0.16,-0.03 -0.21,-0.08l0.05 -0.05c0.03,0.02 0.05,0.04 0.08,0.05 0.03,0.01 0.05,0.02 0.09,0.02 0.04,0 0.07,-0.01 0.09,-0.03 0.03,-0.02 0.04,-0.05 0.04,-0.08 0,-0.02 -0,-0.04 -0.01,-0.05 -0.01,-0.01 -0.02,-0.03 -0.04,-0.04 -0.02,-0.01 -0.05,-0.02 -0.08,-0.03 -0.06,-0.02 -0.11,-0.04 -0.14,-0.07 -0.03,-0.03 -0.04,-0.06 -0.04,-0.11 0,-0.03 0.01,-0.06 0.02,-0.08 0.02,-0.02 0.04,-0.04 0.07,-0.06 0.03,-0.01 0.06,-0.02 0.1,-0.02zm0.81 0.15c0.04,0 0.07,0.01 0.09,0.04 0.02,0.03 0.03,0.06 0.03,0.11l0 0.34 -0.08 0 0 -0.33c0,-0.06 -0.02,-0.09 -0.07,-0.09 -0.02,0 -0.04,0.01 -0.06,0.02 -0.02,0.01 -0.03,0.03 -0.05,0.06l0 0.34 -0.08 0 0 -0.33c0,-0.06 -0.02,-0.09 -0.07,-0.09 -0.02,0 -0.04,0.01 -0.06,0.02 -0.02,0.01 -0.03,0.03 -0.05,0.06l0 0.34 -0.08 0 0 -0.47 0.07 0 0.01 0.07c0.04,-0.05 0.08,-0.08 0.14,-0.08 0.03,0 0.05,0.01 0.08,0.02 0.02,0.01 0.04,0.04 0.04,0.06 0.02,-0.03 0.04,-0.05 0.06,-0.06 0.02,-0.01 0.05,-0.02 0.08,-0.02zm0.61 0.37c0,0.02 0,0.03 0.01,0.04 0.01,0.01 0.02,0.02 0.03,0.02l-0.02 0.06c-0.02,-0 -0.04,-0.01 -0.06,-0.02 -0.02,-0.01 -0.03,-0.03 -0.03,-0.05 -0.03,0.05 -0.08,0.07 -0.14,0.07 -0.05,0 -0.08,-0.01 -0.11,-0.04 -0.03,-0.03 -0.04,-0.06 -0.04,-0.1 0,-0.05 0.02,-0.09 0.05,-0.12 0.04,-0.03 0.09,-0.04 0.15,-0.04l0.07 0 0 -0.03c0,-0.03 -0.01,-0.06 -0.02,-0.07 -0.02,-0.01 -0.04,-0.02 -0.07,-0.02 -0.03,0 -0.08,0.01 -0.13,0.03l-0.02 -0.06c0.06,-0.02 0.11,-0.03 0.16,-0.03 0.06,0 0.1,0.01 0.12,0.04 0.03,0.03 0.04,0.07 0.04,0.12l0 0.22zm-0.19 0.06c0.05,0 0.08,-0.02 0.11,-0.07l0 -0.11 -0.06 0c-0.09,0 -0.13,0.03 -0.13,0.1 0,0.03 0.01,0.05 0.02,0.06 0.01,0.01 0.03,0.02 0.06,0.02zm0.57 -0.43c0.02,0 0.03,0 0.05,0.01l-0.02 0.08c-0.01,-0 -0.03,-0.01 -0.04,-0.01 -0.03,0 -0.05,0.01 -0.07,0.03 -0.02,0.02 -0.03,0.06 -0.04,0.1l0 0.27 -0.08 0 0 -0.47 0.07 0 0.01 0.1c0.01,-0.04 0.03,-0.06 0.05,-0.08 0.02,-0.02 0.05,-0.03 0.08,-0.03zm0.38 0.46c-0.03,0.02 -0.07,0.03 -0.11,0.03 -0.04,0 -0.07,-0.01 -0.09,-0.03 -0.02,-0.02 -0.03,-0.06 -0.03,-0.1l0 -0.29 -0.08 0 0 -0.06 0.08 0 0 -0.11 0.08 -0.01 0 0.12 0.11 0 -0.01 0.06 -0.1 0 0 0.28c0,0.02 0,0.04 0.01,0.05 0.01,0.01 0.02,0.02 0.04,0.02 0.02,0 0.04,-0.01 0.06,-0.02l0.03 0.05zm0.54 -0.61c0.04,0 0.07,0 0.09,0.01 0.03,0.01 0.05,0.03 0.08,0.05l-0.05 0.05c-0.04,-0.03 -0.08,-0.05 -0.12,-0.05 -0.05,0 -0.09,0.02 -0.12,0.06 -0.03,0.04 -0.05,0.1 -0.05,0.19 0,0.09 0.02,0.15 0.05,0.19 0.03,0.04 0.07,0.06 0.12,0.06 0.03,0 0.05,-0 0.07,-0.01 0.02,-0.01 0.04,-0.02 0.06,-0.04l0.04 0.05c-0.02,0.02 -0.04,0.04 -0.07,0.05 -0.03,0.01 -0.06,0.02 -0.1,0.02 -0.05,0 -0.09,-0.01 -0.13,-0.04 -0.04,-0.02 -0.07,-0.06 -0.09,-0.11 -0.02,-0.05 -0.03,-0.11 -0.03,-0.17 0,-0.07 0.01,-0.13 0.03,-0.17 0.02,-0.05 0.05,-0.08 0.09,-0.11 0.04,-0.02 0.08,-0.04 0.13,-0.04zm0.44 0.15c0.07,0 0.12,0.02 0.15,0.07 0.04,0.04 0.06,0.1 0.06,0.18 0,0.05 -0.01,0.09 -0.03,0.13 -0.02,0.04 -0.04,0.07 -0.07,0.09 -0.03,0.02 -0.07,0.03 -0.11,0.03 -0.07,0 -0.12,-0.02 -0.16,-0.07 -0.04,-0.04 -0.06,-0.1 -0.06,-0.18 0,-0.05 0.01,-0.09 0.03,-0.13 0.02,-0.04 0.04,-0.07 0.07,-0.09 0.03,-0.02 0.07,-0.03 0.11,-0.03zm0 0.07c-0.08,0 -0.12,0.06 -0.12,0.18 0,0.12 0.04,0.18 0.12,0.18 0.08,0 0.12,-0.06 0.12,-0.18 0,-0.12 -0.04,-0.18 -0.12,-0.18zm0.31 0.17l0 -0.07 0.25 0 0 0.07 -0.25 0zm0.48 -0.37l0 0.54 0.25 0 -0.01 0.07 -0.33 0 0 -0.62 0.09 0zm0.44 0.15l0 0.47 -0.08 0 0 -0.47 0.08 0zm-0.04 -0.23c0.02,0 0.03,0.01 0.04,0.02 0.01,0.01 0.02,0.02 0.02,0.04 0,0.02 -0.01,0.03 -0.02,0.04 -0.01,0.01 -0.02,0.02 -0.04,0.02 -0.02,0 -0.03,-0.01 -0.04,-0.02 -0.01,-0.01 -0.02,-0.02 -0.02,-0.04 0,-0.02 0.01,-0.03 0.02,-0.04 0.01,-0.01 0.02,-0.02 0.04,-0.02zm0.56 0.23l-0.16 0.47 -0.1 0 -0.16 -0.47 0.09 0 0.12 0.4 0.12 -0.4 0.09 0zm0.18 0l0 0.47 -0.08 0 0 -0.47 0.08 0zm-0.04 -0.23c0.02,0 0.03,0.01 0.04,0.02 0.01,0.01 0.02,0.02 0.02,0.04 0,0.02 -0.01,0.03 -0.02,0.04 -0.01,0.01 -0.02,0.02 -0.04,0.02 -0.02,0 -0.03,-0.01 -0.04,-0.02 -0.01,-0.01 -0.02,-0.02 -0.02,-0.04 0,-0.02 0.01,-0.03 0.02,-0.04 0.01,-0.01 0.02,-0.02 0.04,-0.02zm0.43 0.22c0.04,0 0.08,0.01 0.1,0.04 0.02,0.03 0.04,0.06 0.04,0.11l0 0.34 -0.08 0 0 -0.33c0,-0.03 -0.01,-0.06 -0.02,-0.07 -0.01,-0.01 -0.03,-0.02 -0.06,-0.02 -0.03,0 -0.05,0.01 -0.07,0.02 -0.02,0.01 -0.04,0.03 -0.05,0.06l0 0.34 -0.08 0 0 -0.47 0.07 0 0.01 0.07c0.02,-0.03 0.04,-0.04 0.06,-0.06 0.02,-0.01 0.05,-0.02 0.08,-0.02zm0.68 0.03c-0.02,0.01 -0.04,0.01 -0.06,0.01 -0.02,0 -0.05,0 -0.08,0 0.06,0.03 0.08,0.06 0.08,0.12 0,0.05 -0.02,0.09 -0.05,0.12 -0.03,0.03 -0.08,0.04 -0.13,0.04 -0.02,0 -0.04,-0 -0.06,-0.01 -0.01,0 -0.01,0.01 -0.02,0.02 -0,0.01 -0.01,0.02 -0.01,0.02 0,0.03 0.02,0.04 0.06,0.04l0.08 0c0.03,0 0.06,0.01 0.08,0.02 0.02,0.01 0.04,0.03 0.06,0.05 0.01,0.02 0.02,0.04 0.02,0.07 0,0.05 -0.02,0.08 -0.06,0.11 -0.04,0.02 -0.09,0.04 -0.16,0.04 -0.05,0 -0.09,-0.01 -0.12,-0.02 -0.03,-0.01 -0.05,-0.03 -0.06,-0.05 -0.01,-0.02 -0.02,-0.05 -0.02,-0.08l0.07 0c0,0.02 0,0.03 0.01,0.05 0.01,0.01 0.02,0.02 0.04,0.03 0.02,0.01 0.04,0.01 0.08,0.01 0.05,0 0.08,-0.01 0.11,-0.02 0.02,-0.01 0.03,-0.03 0.03,-0.06 0,-0.02 -0.01,-0.04 -0.03,-0.05 -0.02,-0.01 -0.04,-0.02 -0.07,-0.02l-0.07 0c-0.04,0 -0.07,-0.01 -0.09,-0.03 -0.02,-0.02 -0.03,-0.04 -0.03,-0.06 0,-0.02 0,-0.03 0.01,-0.04 0.01,-0.01 0.02,-0.03 0.04,-0.04 -0.03,-0.01 -0.05,-0.03 -0.06,-0.05 -0.01,-0.02 -0.02,-0.05 -0.02,-0.08 0,-0.03 0.01,-0.06 0.02,-0.09 0.02,-0.03 0.04,-0.04 0.07,-0.06 0.03,-0.01 0.06,-0.02 0.09,-0.02 0.04,0 0.07,-0 0.09,-0 0.03,-0 0.05,-0.01 0.06,-0.01 0.02,-0.01 0.04,-0.01 0.06,-0.02l0.02 0.07zm-0.24 0.03c-0.03,0 -0.06,0.01 -0.07,0.03 -0.02,0.02 -0.03,0.04 -0.03,0.08 0,0.03 0.01,0.06 0.03,0.08 0.02,0.02 0.04,0.03 0.07,0.03 0.03,0 0.06,-0.01 0.07,-0.03 0.02,-0.02 0.03,-0.05 0.03,-0.08 0,-0.07 -0.03,-0.11 -0.1,-0.11zm0.72 -0.2c0.04,0 0.08,0.01 0.11,0.02 0.03,0.01 0.06,0.03 0.09,0.05l-0.05 0.05c-0.02,-0.02 -0.05,-0.03 -0.07,-0.04 -0.02,-0.01 -0.05,-0.01 -0.07,-0.01 -0.03,0 -0.06,0.01 -0.08,0.02 -0.02,0.02 -0.03,0.04 -0.03,0.07 0,0.02 0,0.03 0.01,0.05 0.01,0.01 0.02,0.02 0.04,0.03 0.02,0.01 0.05,0.02 0.08,0.03 0.04,0.01 0.07,0.02 0.1,0.04 0.03,0.01 0.05,0.03 0.06,0.06 0.02,0.02 0.02,0.05 0.02,0.09 0,0.04 -0.01,0.07 -0.03,0.09 -0.02,0.03 -0.04,0.05 -0.08,0.06 -0.03,0.02 -0.07,0.02 -0.12,0.02 -0.09,0 -0.16,-0.03 -0.21,-0.08l0.05 -0.05c0.03,0.02 0.05,0.04 0.08,0.05 0.03,0.01 0.05,0.02 0.09,0.02 0.04,0 0.07,-0.01 0.09,-0.03 0.03,-0.02 0.04,-0.05 0.04,-0.08 0,-0.02 -0,-0.04 -0.01,-0.05 -0.01,-0.01 -0.02,-0.03 -0.04,-0.04 -0.02,-0.01 -0.05,-0.02 -0.08,-0.03 -0.06,-0.02 -0.11,-0.04 -0.14,-0.07 -0.03,-0.03 -0.04,-0.06 -0.04,-0.11 0,-0.03 0.01,-0.06 0.02,-0.08 0.02,-0.02 0.04,-0.04 0.07,-0.06 0.03,-0.01 0.06,-0.02 0.1,-0.02zm0.55 0.15c0.06,0 0.1,0.02 0.13,0.06 0.03,0.04 0.04,0.1 0.04,0.18 0,0.07 -0.02,0.13 -0.05,0.18 -0.03,0.05 -0.08,0.07 -0.14,0.07 -0.05,0 -0.09,-0.02 -0.12,-0.05l0 0.22 -0.08 0.01 0 -0.66 0.07 0 0.01 0.06c0.02,-0.02 0.04,-0.04 0.06,-0.06 0.02,-0.01 0.05,-0.02 0.08,-0.02zm-0.03 0.43c0.08,0 0.12,-0.06 0.12,-0.18 0,-0.12 -0.04,-0.18 -0.11,-0.18 -0.02,0 -0.04,0.01 -0.06,0.02 -0.02,0.01 -0.04,0.03 -0.05,0.05l0 0.23c0.01,0.02 0.03,0.03 0.04,0.04 0.02,0.01 0.04,0.01 0.06,0.01zm0.66 -0.05c0,0.02 0,0.03 0.01,0.04 0.01,0.01 0.02,0.02 0.03,0.02l-0.02 0.06c-0.02,-0 -0.04,-0.01 -0.06,-0.02 -0.01,-0.01 -0.03,-0.03 -0.03,-0.05 -0.03,0.05 -0.08,0.07 -0.14,0.07 -0.05,0 -0.08,-0.01 -0.11,-0.04 -0.03,-0.03 -0.04,-0.06 -0.04,-0.1 0,-0.05 0.02,-0.09 0.05,-0.12 0.04,-0.03 0.09,-0.04 0.15,-0.04l0.07 0 0 -0.03c0,-0.03 -0.01,-0.06 -0.02,-0.07 -0.02,-0.01 -0.04,-0.02 -0.07,-0.02 -0.03,0 -0.08,0.01 -0.13,0.03l-0.02 -0.06c0.06,-0.02 0.11,-0.03 0.16,-0.03 0.06,0 0.1,0.01 0.12,0.04 0.03,0.03 0.04,0.07 0.04,0.12l0 0.22zm-0.19 0.06c0.05,0 0.08,-0.02 0.11,-0.07l0 -0.11 -0.06 0c-0.09,0 -0.13,0.03 -0.13,0.1 0,0.03 0.01,0.05 0.02,0.06 0.01,0.01 0.03,0.02 0.06,0.02zm0.54 -0.43c0.03,0 0.05,0 0.08,0.01 0.02,0.01 0.05,0.02 0.07,0.04l-0.04 0.05c-0.02,-0.01 -0.03,-0.02 -0.05,-0.03 -0.02,-0.01 -0.03,-0.01 -0.05,-0.01 -0.04,0 -0.07,0.02 -0.09,0.05 -0.02,0.03 -0.03,0.08 -0.03,0.14 0,0.06 0.01,0.1 0.03,0.13 0.02,0.03 0.05,0.04 0.09,0.04 0.02,0 0.04,-0 0.05,-0.01 0.02,-0.01 0.03,-0.01 0.05,-0.03l0.04 0.05c-0.04,0.03 -0.09,0.05 -0.14,0.05 -0.06,0 -0.11,-0.02 -0.15,-0.06 -0.04,-0.04 -0.06,-0.1 -0.06,-0.18 0,-0.05 0.01,-0.09 0.03,-0.13 0.02,-0.04 0.04,-0.07 0.07,-0.09 0.03,-0.02 0.07,-0.03 0.11,-0.03zm0.6 0.23c0,0.01 -0,0.03 -0,0.04l-0.3 0c0,0.05 0.02,0.09 0.04,0.11 0.02,0.02 0.05,0.04 0.09,0.04 0.02,0 0.04,-0 0.06,-0.01 0.02,-0.01 0.04,-0.02 0.06,-0.03l0.04 0.05c-0.05,0.04 -0.11,0.06 -0.16,0.06 -0.07,0 -0.12,-0.02 -0.15,-0.06 -0.04,-0.04 -0.06,-0.1 -0.06,-0.18 0,-0.05 0.01,-0.09 0.02,-0.13 0.02,-0.04 0.04,-0.07 0.07,-0.09 0.03,-0.02 0.06,-0.03 0.1,-0.03 0.06,0 0.11,0.02 0.14,0.06 0.03,0.04 0.05,0.1 0.05,0.17zm-0.08 -0.02c0,-0.05 -0.01,-0.08 -0.03,-0.11 -0.02,-0.02 -0.05,-0.04 -0.08,-0.04 -0.07,0 -0.1,0.05 -0.11,0.15l0.22 0 0 -0.01z"/>
   </g>
   <polygon class="fil9" points="-0,0 20.49,0 20.49,6.15 -0,6.15 "/>
  </g>
 </g>
</svg>
